<svg width="48" height="42" viewBox="0 0 48 42" fill="none" xmlns="http://www.w3.org/2000/svg">
<path d="M41.7123 25.3704L37.9879 24.526V22.9774C38.8174 22.6135 39.5812 22.0965 40.2412 21.4368C41.277 20.401 41.9658 19.1109 42.2509 17.7073C43.4772 17.5497 44.4281 16.4999 44.4281 15.2314C44.4281 14.5674 44.1658 13.9387 43.7025 13.4728V7.74741C43.7025 4.18904 40.8076 1.29423 37.2493 1.29423V1.31335C36.8242 0.79651 36.1804 0.46576 35.4606 0.464447H35.4496C35.4413 0.464447 35.4331 0.464447 35.4247 0.464447C33.0432 0.464447 30.7846 1.40917 29.0629 3.1262C27.2983 4.88598 26.3265 7.21248 26.3265 9.67726V13.5032C25.8818 13.9659 25.6298 14.5839 25.6298 15.2315C25.6298 15.6784 25.7484 16.0978 25.9549 16.461C25.3063 16.2902 24.6312 16.2021 23.9422 16.2059C22.6579 16.2155 21.4478 16.5509 20.3872 17.1324V16.2042C20.3872 13.3387 18.5526 10.8352 15.8219 9.97463L15.5401 10.8688C17.8785 11.6057 19.4497 13.7499 19.4497 16.2042V17.7394C17.8493 18.9501 16.732 20.7799 16.4476 22.8693C15.4244 23.5464 14.2371 23.9038 13 23.9038C11.3275 23.9038 9.75459 23.2524 8.571 22.0697C7.38806 20.8859 6.73659 19.3129 6.73659 17.6404V16.444C6.73659 14.3943 7.92871 12.5137 9.7784 11.6366L9.83081 11.6125C12.0408 10.5947 13.4688 8.36392 13.4688 5.92942V5.12738H12.5313V5.92942C12.5313 7.97907 11.341 9.85876 9.49331 10.7354L9.43771 10.761C7.22737 11.78 5.79909 14.0107 5.79909 16.444V23.7472C5.79909 24.7444 5.94796 25.7286 6.24037 26.6798C4.78546 27.2247 3.58528 28.2864 2.86734 29.6673C2.17509 28.82 1.78668 27.7506 1.78668 26.6459C1.78668 25.1645 2.45728 23.792 3.6269 22.8799C4.30978 22.3462 4.70137 21.5469 4.70137 20.6872V11.0853C4.70137 8.86117 5.56753 6.77017 7.14028 5.19742C8.69634 3.64229 10.764 2.77642 12.9626 2.75935C15.1653 2.74192 17.2499 3.60132 18.8401 5.17913C20.4632 6.78938 21.357 8.92426 21.357 11.1903V15.26H22.2945V11.1903C22.2945 8.67245 21.3022 6.30123 19.5005 4.5136C17.7314 2.75851 15.4087 1.80423 12.9552 1.82195C10.5092 1.84107 8.20865 2.80435 6.47737 4.53451C4.72753 6.28435 3.76387 8.61085 3.76387 11.0854V20.6873C3.76387 21.2566 3.50362 21.7865 3.05006 22.1409C1.6514 23.2315 0.849182 24.8736 0.849182 26.646C0.849182 28.1311 1.43474 29.5641 2.46496 30.6251C2.25956 31.2533 2.15512 31.9082 2.15512 32.5765V41.5355H13.6554V40.598H3.09234V32.5765C3.09234 31.9183 3.21056 31.2757 3.44399 30.6661C4.08506 28.9861 5.51475 27.7456 7.26843 27.3477L11.2944 26.4353V24.6381C11.8463 24.7716 12.4177 24.8412 12.9997 24.8412C13.6011 24.8412 14.1921 24.7666 14.7632 24.623V26.4353L16.3744 26.8006V29.0482C16.3744 31.0233 17.9812 32.6301 19.9563 32.6301H20.0866V31.6926H19.9563C18.4982 31.6926 17.3119 30.5063 17.3119 29.0482V23.9209C17.3119 20.2108 20.2893 17.1705 23.949 17.1433C25.7496 17.1294 27.4367 17.8194 28.7111 19.0843C29.9857 20.3495 30.6877 22.0353 30.6877 23.831V29.0482C30.6877 30.5063 29.5013 31.6926 28.0432 31.6926V32.6301C30.0183 32.6301 31.6252 31.0233 31.6252 29.0482V25.6016L32.1278 25.4874V29.7573C32.1278 30.0264 32.2989 30.2658 32.5538 30.3526C32.6205 30.3754 32.6889 30.3864 32.7567 30.3864C32.9479 30.3864 33.1333 30.2989 33.2548 30.1417L35.0579 27.6314L36.8513 30.1287L36.8611 30.1419C37.0255 30.3549 37.3072 30.4395 37.5621 30.3527C37.8168 30.2658 37.988 30.0265 37.988 29.7574V25.4872L41.5051 26.2847C44.2775 26.9127 46.2137 29.337 46.2137 32.1801V40.598H42.2295V32.7645H41.292V40.598H33.7585V41.5355H47.1512V32.1801C47.1512 30.6024 46.609 29.0546 45.6246 27.8222C44.6399 26.5897 43.2505 25.7189 41.7123 25.3704ZM7.9079 22.7326C7.93396 22.7587 7.96134 22.7829 7.98787 22.8086V23.7217C7.98787 24.5442 8.09062 25.3603 8.29059 26.1549L7.13953 26.4158C6.87225 25.5503 6.7364 24.6547 6.7364 23.7472V21.195C7.05271 21.7507 7.44375 22.2681 7.9079 22.7326ZM10.357 25.6867L9.20493 25.9478C9.01996 25.2211 8.92537 24.4743 8.92537 23.7217V23.578C9.37434 23.8874 9.85415 24.1425 10.357 24.3409V25.6867ZM15.7008 25.6867V24.3183C15.9303 24.2253 16.1548 24.1191 16.3745 24.0022V25.8395L15.7008 25.6867ZM42.3812 16.7243C42.3922 16.5586 42.3997 16.3923 42.3997 16.2248V16.0294C42.869 15.8548 43.2548 15.5097 43.4816 15.0684C43.4872 15.1224 43.4905 15.1767 43.4905 15.2315C43.4905 15.935 43.0222 16.5306 42.3812 16.7243ZM42.7649 7.7476V14.1603C42.7649 14.4787 42.623 14.7639 42.3997 14.9581V14.4352C42.3997 13.6488 42.1661 12.8898 41.7237 12.2394C41.5585 11.9978 41.43 11.7307 41.3422 11.4465C41.2552 11.1633 41.2111 10.8697 41.2111 10.5736V9.60235C41.2111 8.1332 40.0158 6.93798 38.5502 6.93798L37.4714 6.93001C37.6732 6.35401 37.7769 5.75073 37.7769 5.12767V2.78392C37.7769 2.6012 37.7551 2.42363 37.7149 2.25301C40.5389 2.49029 42.7649 4.8631 42.7649 7.7476ZM27.2638 9.67735C27.2638 7.46345 28.1377 5.37263 29.7247 3.79013C31.2696 2.24954 33.2929 1.40204 35.426 1.40204C35.4333 1.40204 35.4408 1.40204 35.4481 1.40204H35.4594C36.2203 1.40345 36.8393 2.02332 36.8393 2.78392V5.12767C36.8393 5.8502 36.6742 6.54104 36.3487 7.1807C35.5697 8.70854 34.022 9.65767 32.3094 9.65767C31.0658 9.65767 29.8976 10.1417 29.0201 11.0202C28.1415 11.8989 27.6576 13.0668 27.6576 14.3086V14.8751C27.4122 14.6438 27.2638 14.3167 27.2638 13.9589V9.67735ZM26.5869 14.9982C26.8189 15.4314 27.1924 15.7805 27.6577 15.9786V16.2248C27.6577 16.3917 27.6637 16.5581 27.6749 16.7238C27.0348 16.5294 26.5673 15.9343 26.5673 15.2315C26.5672 15.1526 26.5753 15.0751 26.5869 14.9982ZM28.8231 17.9249C28.6724 17.3753 28.5951 16.8042 28.5951 16.2249V14.3086C28.5951 13.3172 28.9814 12.3848 29.6832 11.6829C30.3839 10.9815 31.3165 10.5952 32.3094 10.5952C34.2777 10.5952 36.0651 9.55595 37.0428 7.86442L38.5466 7.87548C39.4987 7.87548 40.2735 8.65013 40.2735 9.60235V10.5736C40.2735 10.963 40.3315 11.3495 40.4463 11.7227C40.5622 12.0973 40.7315 12.4492 40.9491 12.7675C41.2848 13.2609 41.4622 13.8376 41.4622 14.4352V16.2249C41.4622 17.9436 40.7932 19.5592 39.5784 20.7739C38.3624 21.9889 36.7469 22.658 35.0291 22.658C34.247 22.658 33.4842 22.5195 32.7611 22.2463C32.2169 22.0419 31.7047 21.7639 31.2359 21.4204C30.8641 20.3007 30.2339 19.275 29.3715 18.4191C29.1956 18.2444 29.0124 18.08 28.8231 17.9249ZM31.6252 24.6404V23.8311C31.6252 23.4559 31.5977 23.085 31.5449 22.7203C31.7348 22.8223 31.9292 22.9163 32.1277 23.001V24.5261L31.6252 24.6404ZM33.0653 28.7989V25.8633L34.4149 26.9199L33.0653 28.7989ZM35.0578 26.2327L33.0651 24.6723V23.3306C33.701 23.5064 34.3591 23.5954 35.0291 23.5954C35.7226 23.5954 36.4009 23.4983 37.0504 23.3141V24.6724L35.0578 26.2327ZM37.0504 28.7989L35.7009 26.9198L37.0504 25.8632V28.7989Z" fill="white"/>
<path d="M25.9254 27.4094C26.1738 27.4094 26.3753 27.208 26.3753 26.9596V26.6505C26.3753 26.4021 26.1739 26.2006 25.9254 26.2006C25.6771 26.2006 25.4756 26.402 25.4756 26.6505V26.9596C25.4756 27.208 25.6771 27.4094 25.9254 27.4094Z" fill="white"/>
<path d="M22.2043 27.4094C22.4527 27.4094 22.6542 27.208 22.6542 26.9596V26.6505C22.6542 26.4021 22.4528 26.2006 22.2043 26.2006C21.9559 26.2006 21.7544 26.402 21.7544 26.6505V26.9596C21.7544 27.208 21.9558 27.4094 22.2043 27.4094Z" fill="white"/>
<path d="M26.1561 29.1161L25.3104 28.7117C25.0777 29.1983 24.5793 29.5128 24.0406 29.5128C23.5015 29.5128 23.0031 29.1985 22.771 28.7121L21.9249 29.1159C22.3118 29.9265 23.1423 30.4503 24.0406 30.4503C24.9382 30.4503 25.7686 29.9266 26.1561 29.1161Z" fill="white"/>
<path d="M18.3236 22.1901L19.996 23.8625L20.6589 23.1996L18.9865 21.5272L18.3236 22.1901Z" fill="white"/>
<path d="M21.6671 22.191L19.9947 20.5186L19.3318 21.1815L21.0042 22.8539L21.6671 22.191Z" fill="white"/>
<path d="M32.9008 38.3205C32.9008 35.8781 31.2373 33.7953 28.8553 33.2555L26.2539 32.6659V31.9383C28.3879 31.0834 29.986 29.0487 30.2737 26.5517C30.3403 25.9741 30.0951 25.3961 29.6339 25.0433C29.1546 24.6765 28.3298 23.8883 28.1906 22.7299C28.1388 22.2978 27.8575 21.9377 27.457 21.7902L27.4128 21.7739C26.9486 21.603 26.4337 21.7495 26.1315 22.1387C24.4085 24.357 21.1031 25.0119 19.286 25.205C18.8175 25.2548 18.39 25.5025 18.1133 25.8846C17.837 26.266 17.735 26.7486 17.8337 27.2083C18.1427 28.6489 18.9183 29.9578 20.0177 30.8939C20.5388 31.3375 21.1238 31.6872 21.7456 31.9358V32.6659L19.1441 33.2555C16.7622 33.7954 15.0987 35.8782 15.0987 38.3205V41.5356H32.9009V38.3205H32.9008ZM18.7504 27.0116C18.7068 26.8084 18.7503 26.6034 18.8727 26.4345C18.9955 26.2649 19.1776 26.1593 19.3852 26.1373C21.3503 25.9284 24.9361 25.2061 26.8719 22.7138C26.9083 22.6671 26.9635 22.6414 27.0209 22.6414C27.0435 22.6414 27.0663 22.6453 27.0888 22.6536L27.1329 22.6699C27.2015 22.6952 27.2502 22.761 27.2599 22.8416V22.8417C27.44 24.3416 28.4677 25.3314 29.0643 25.7878C29.2648 25.9413 29.3714 26.1928 29.3424 26.4444C29.0145 29.2902 26.7176 31.4364 23.9999 31.4364C21.4678 31.4363 19.3092 29.6169 18.7504 27.0116ZM23.9998 32.3738C24.4504 32.3738 24.8907 32.3222 25.3164 32.2273V32.8376C24.9508 33.1546 24.49 33.3279 23.9998 33.3279C23.5096 33.3279 23.0487 33.1544 22.683 32.8375V32.2272C23.1139 32.3237 23.5552 32.3738 23.9998 32.3738ZM22.0753 33.5524C22.6103 34.0139 23.2839 34.2656 23.9998 34.2655C24.7157 34.2655 25.3892 34.0137 25.924 33.5524L27.5744 33.9264V36.6271H20.5552V33.897L22.0753 33.5524ZM19.3514 34.1698L19.6178 34.1094V37.5645H28.512V34.1389L28.6481 34.1697C28.9683 34.2422 29.272 34.3494 29.5571 34.4858V40.598H18.524V34.4477C18.7853 34.3297 19.0617 34.2354 19.3514 34.1698ZM16.0362 38.3205C16.0362 37.0035 16.6266 35.8142 17.5865 35.0286V40.5981H16.0362V38.3205ZM31.9633 40.5981H30.4946V35.0981C31.4059 35.8835 31.9633 37.0415 31.9633 38.3205V40.5981Z" fill="white"/>
<path d="M13.029 20.7789C12.6701 20.7789 12.3384 20.5697 12.1839 20.2459L11.3378 20.6497C11.647 21.2977 12.3109 21.7164 13.029 21.7164C13.7466 21.7164 14.4103 21.2979 14.7201 20.65L13.8744 20.2457C13.7194 20.5696 13.3876 20.7789 13.029 20.7789Z" fill="white"/>
<path d="M15.5674 30.0304H5.00195V30.9679H15.5674V30.0304Z" fill="white"/>
<path d="M16.3893 16.156C16.6751 16.156 16.9077 16.3886 16.9077 16.6745H17.8452C17.8452 15.8717 17.1921 15.2185 16.3893 15.2185C15.5865 15.2185 14.9333 15.8717 14.9333 16.6745H15.8708C15.8708 16.3886 16.1034 16.156 16.3893 16.156Z" fill="white"/>
<path d="M8.21271 16.6745H9.15021C9.15021 16.3886 9.3828 16.156 9.66865 16.156C9.95458 16.156 10.1871 16.3886 10.1871 16.6745H11.1246C11.1246 15.8717 10.4714 15.2185 9.66865 15.2185C8.86586 15.2185 8.21271 15.8717 8.21271 16.6745Z" fill="white"/>
<path d="M35.0586 20.3566C35.7898 20.3566 36.4662 19.9301 36.7819 19.27L35.9361 18.8656C35.7753 19.2019 35.4308 19.4192 35.0587 19.4192C34.6862 19.4192 34.3419 19.2021 34.1816 18.866L33.3355 19.2698C33.6503 19.9299 34.3268 20.3566 35.0586 20.3566Z" fill="white"/>
<path d="M38.419 14.95C38.7049 14.95 38.9374 15.1825 38.9374 15.4685H39.8749C39.8749 14.6657 39.2218 14.0125 38.419 14.0125C37.6162 14.0125 36.9631 14.6657 36.9631 15.4685H37.9006C37.9005 15.1826 38.1331 14.95 38.419 14.95Z" fill="white"/>
<path d="M31.6983 14.95C31.9842 14.95 32.2167 15.1825 32.2167 15.4685H33.1542C33.1542 14.6657 32.501 14.0125 31.6983 14.0125C30.8955 14.0125 30.2423 14.6657 30.2423 15.4685H31.1798C31.1798 15.1826 31.4124 14.95 31.6983 14.95Z" fill="white"/>
<path d="M35.5266 29.9181H34.5891V39.539H35.5266V29.9181Z" fill="white"/>
</svg>
